# MagicaVoxel @ Ephtracy

# material
mtllib Bonus_Life.mtl
usemtl palette

# normals
vn -1 0 0
vn 1 0 0
vn 0 0 1
vn 0 0 -1
vn 0 -1 0
vn 0 1 0

# texcoords
vt 0.779297 0.5
vt 0.810547 0.5
vt 0.841797 0.5
vt 0.853516 0.5
vt 0.958984 0.5
vt 0.982422 0.5

# verts
v -6.5 4 0.5
v -6.5 4 -0.5
v -6.5 9 0.5
v -6.5 9 -0.5
v -5.5 3 0.5
v -5.5 3 -0.5
v -5.5 4 0.5
v -5.5 4 -0.5
v -5.5 9 0.5
v -5.5 9 -0.5
v -5.5 10 0.5
v -5.5 10 -0.5
v -4.5 5 1.5
v -4.5 5 0.5
v -4.5 5 -0.5
v -4.5 5 -1.5
v -4.5 6 -0.5
v -4.5 6 -1.5
v -4.5 7 -0.5
v -4.5 7 -1.5
v -4.5 8 1.5
v -4.5 8 0.5
v -4.5 8 -0.5
v -4.5 8 -1.5
v -3.5 1 0.5
v -3.5 1 -0.5
v -3.5 3 0.5
v -3.5 3 -0.5
v -3.5 10 0.5
v -3.5 10 -0.5
v -3.5 12 0.5
v -3.5 12 -0.5
v -2.5 0 0.5
v -2.5 0 -0.5
v -2.5 1 0.5
v -2.5 1 -0.5
v -2.5 12 0.5
v -2.5 12 -0.5
v -2.5 13 0.5
v -2.5 13 -0.5
v -1.5 2 1.5
v -1.5 2 0.5
v -1.5 2 -0.5
v -1.5 2 -1.5
v -1.5 5 1.5
v -1.5 5 0.5
v -1.5 5 -0.5
v -1.5 5 -1.5
v -1.5 8 1.5
v -1.5 8 0.5
v -1.5 8 -0.5
v -1.5 8 -1.5
v -1.5 9 -0.5
v -1.5 9 -1.5
v -1.5 10 1.5
v -1.5 10 0.5
v -1.5 10 -0.5
v -1.5 10 -1.5
v -1.5 11 1.5
v -1.5 11 0.5
v -1.5 11 -0.5
v -1.5 11 -1.5
v 1.5 2 1.5
v 1.5 2 0.5
v 1.5 2 -0.5
v 1.5 2 -1.5
v 1.5 5 1.5
v 1.5 5 0.5
v 1.5 5 -0.5
v 1.5 5 -1.5
v 1.5 8 1.5
v 1.5 8 0.5
v 1.5 8 -0.5
v 1.5 8 -1.5
v 1.5 9 1.5
v 1.5 9 0.5
v 1.5 10 1.5
v 1.5 10 0.5
v 1.5 10 -0.5
v 1.5 10 -1.5
v 1.5 11 1.5
v 1.5 11 0.5
v 1.5 11 -0.5
v 1.5 11 -1.5
v 2.5 0 0.5
v 2.5 0 -0.5
v 2.5 1 0.5
v 2.5 1 -0.5
v 2.5 12 0.5
v 2.5 12 -0.5
v 2.5 13 0.5
v 2.5 13 -0.5
v 3.5 1 0.5
v 3.5 1 -0.5
v 3.5 3 0.5
v 3.5 3 -0.5
v 3.5 10 0.5
v 3.5 10 -0.5
v 3.5 12 0.5
v 3.5 12 -0.5
v 4.5 5 1.5
v 4.5 5 0.5
v 4.5 5 -0.5
v 4.5 5 -1.5
v 4.5 6 1.5
v 4.5 6 0.5
v 4.5 7 1.5
v 4.5 7 0.5
v 4.5 8 1.5
v 4.5 8 0.5
v 4.5 8 -0.5
v 4.5 8 -1.5
v 5.5 3 0.5
v 5.5 3 -0.5
v 5.5 4 0.5
v 5.5 4 -0.5
v 5.5 9 0.5
v 5.5 9 -0.5
v 5.5 10 0.5
v 5.5 10 -0.5
v 6.5 4 0.5
v 6.5 4 -0.5
v 6.5 9 0.5
v 6.5 9 -0.5
v -4.5 5 1.5
v -4.5 8 1.5
v -1.5 2 1.5
v -1.5 5 1.5
v -1.5 8 1.5
v -1.5 10 1.5
v -1.5 11 1.5
v -0.5 9 1.5
v -0.5 10 1.5
v -0.5 11 1.5
v 0.5 8 1.5
v 0.5 9 1.5
v 0.5 10 1.5
v 0.5 11 1.5
v 1.5 2 1.5
v 1.5 5 1.5
v 1.5 7 1.5
v 1.5 8 1.5
v 1.5 9 1.5
v 1.5 10 1.5
v 1.5 11 1.5
v 2.5 6 1.5
v 2.5 7 1.5
v 2.5 8 1.5
v 3.5 5 1.5
v 3.5 6 1.5
v 3.5 7 1.5
v 3.5 8 1.5
v 4.5 5 1.5
v 4.5 6 1.5
v 4.5 7 1.5
v 4.5 8 1.5
v -6.5 4 0.5
v -6.5 9 0.5
v -5.5 3 0.5
v -5.5 4 0.5
v -5.5 8 0.5
v -5.5 9 0.5
v -5.5 10 0.5
v -4.5 5 0.5
v -4.5 8 0.5
v -4.5 9 0.5
v -3.5 1 0.5
v -3.5 3 0.5
v -3.5 10 0.5
v -3.5 12 0.5
v -2.5 0 0.5
v -2.5 1 0.5
v -2.5 2 0.5
v -2.5 4 0.5
v -2.5 9 0.5
v -2.5 11 0.5
v -2.5 12 0.5
v -2.5 13 0.5
v -1.5 1 0.5
v -1.5 2 0.5
v -1.5 5 0.5
v -1.5 8 0.5
v -1.5 10 0.5
v -1.5 11 0.5
v -1.5 12 0.5
v -0.5 11 0.5
v 0.5 11 0.5
v 1.5 1 0.5
v 1.5 2 0.5
v 1.5 5 0.5
v 1.5 8 0.5
v 1.5 9 0.5
v 1.5 10 0.5
v 1.5 11 0.5
v 1.5 12 0.5
v 2.5 0 0.5
v 2.5 1 0.5
v 2.5 2 0.5
v 2.5 4 0.5
v 2.5 8 0.5
v 2.5 9 0.5
v 2.5 11 0.5
v 2.5 12 0.5
v 2.5 13 0.5
v 3.5 1 0.5
v 3.5 3 0.5
v 3.5 5 0.5
v 3.5 8 0.5
v 3.5 10 0.5
v 3.5 12 0.5
v 4.5 4 0.5
v 4.5 5 0.5
v 4.5 6 0.5
v 4.5 7 0.5
v 4.5 8 0.5
v 4.5 9 0.5
v 5.5 3 0.5
v 5.5 4 0.5
v 5.5 5 0.5
v 5.5 8 0.5
v 5.5 9 0.5
v 5.5 10 0.5
v 6.5 4 0.5
v 6.5 9 0.5
v -6.5 4 -0.5
v -6.5 9 -0.5
v -5.5 3 -0.5
v -5.5 4 -0.5
v -5.5 8 -0.5
v -5.5 9 -0.5
v -5.5 10 -0.5
v -4.5 5 -0.5
v -4.5 6 -0.5
v -4.5 7 -0.5
v -4.5 8 -0.5
v -4.5 9 -0.5
v -3.5 1 -0.5
v -3.5 3 -0.5
v -3.5 5 -0.5
v -3.5 8 -0.5
v -3.5 10 -0.5
v -3.5 12 -0.5
v -2.5 0 -0.5
v -2.5 1 -0.5
v -2.5 2 -0.5
v -2.5 4 -0.5
v -2.5 8 -0.5
v -2.5 9 -0.5
v -2.5 11 -0.5
v -2.5 12 -0.5
v -2.5 13 -0.5
v -1.5 1 -0.5
v -1.5 2 -0.5
v -1.5 5 -0.5
v -1.5 8 -0.5
v -1.5 9 -0.5
v -1.5 10 -0.5
v -1.5 11 -0.5
v -1.5 12 -0.5
v -0.5 11 -0.5
v 0.5 11 -0.5
v 1.5 1 -0.5
v 1.5 2 -0.5
v 1.5 5 -0.5
v 1.5 8 -0.5
v 1.5 10 -0.5
v 1.5 11 -0.5
v 1.5 12 -0.5
v 2.5 0 -0.5
v 2.5 1 -0.5
v 2.5 2 -0.5
v 2.5 4 -0.5
v 2.5 9 -0.5
v 2.5 11 -0.5
v 2.5 12 -0.5
v 2.5 13 -0.5
v 3.5 1 -0.5
v 3.5 3 -0.5
v 3.5 10 -0.5
v 3.5 12 -0.5
v 4.5 4 -0.5
v 4.5 5 -0.5
v 4.5 8 -0.5
v 4.5 9 -0.5
v 5.5 3 -0.5
v 5.5 4 -0.5
v 5.5 5 -0.5
v 5.5 8 -0.5
v 5.5 9 -0.5
v 5.5 10 -0.5
v 6.5 4 -0.5
v 6.5 9 -0.5
v -4.5 5 -1.5
v -4.5 6 -1.5
v -4.5 7 -1.5
v -4.5 8 -1.5
v -3.5 5 -1.5
v -3.5 6 -1.5
v -3.5 7 -1.5
v -3.5 8 -1.5
v -2.5 6 -1.5
v -2.5 7 -1.5
v -2.5 8 -1.5
v -1.5 2 -1.5
v -1.5 5 -1.5
v -1.5 7 -1.5
v -1.5 8 -1.5
v -1.5 9 -1.5
v -1.5 10 -1.5
v -1.5 11 -1.5
v -0.5 8 -1.5
v -0.5 9 -1.5
v -0.5 10 -1.5
v -0.5 11 -1.5
v 0.5 9 -1.5
v 0.5 10 -1.5
v 0.5 11 -1.5
v 1.5 2 -1.5
v 1.5 5 -1.5
v 1.5 8 -1.5
v 1.5 10 -1.5
v 1.5 11 -1.5
v 4.5 5 -1.5
v 4.5 8 -1.5
v -2.5 0 0.5
v 2.5 0 0.5
v -2.5 0 -0.5
v 2.5 0 -0.5
v -3.5 1 0.5
v -2.5 1 0.5
v 2.5 1 0.5
v 3.5 1 0.5
v -3.5 1 -0.5
v -2.5 1 -0.5
v 2.5 1 -0.5
v 3.5 1 -0.5
v -1.5 2 1.5
v 1.5 2 1.5
v -1.5 2 0.5
v 1.5 2 0.5
v -1.5 2 -0.5
v 1.5 2 -0.5
v -1.5 2 -1.5
v 1.5 2 -1.5
v -5.5 3 0.5
v -3.5 3 0.5
v 3.5 3 0.5
v 5.5 3 0.5
v -5.5 3 -0.5
v -3.5 3 -0.5
v 3.5 3 -0.5
v 5.5 3 -0.5
v -6.5 4 0.5
v -5.5 4 0.5
v 5.5 4 0.5
v 6.5 4 0.5
v -6.5 4 -0.5
v -5.5 4 -0.5
v 5.5 4 -0.5
v 6.5 4 -0.5
v -4.5 5 1.5
v -1.5 5 1.5
v 1.5 5 1.5
v 3.5 5 1.5
v 4.5 5 1.5
v -4.5 5 0.5
v -1.5 5 0.5
v 1.5 5 0.5
v 3.5 5 0.5
v 4.5 5 0.5
v -4.5 5 -0.5
v -3.5 5 -0.5
v -1.5 5 -0.5
v 1.5 5 -0.5
v 4.5 5 -0.5
v -4.5 5 -1.5
v -3.5 5 -1.5
v -1.5 5 -1.5
v 1.5 5 -1.5
v 4.5 5 -1.5
v -4.5 8 1.5
v -1.5 8 1.5
v 1.5 8 1.5
v 2.5 8 1.5
v 3.5 8 1.5
v 4.5 8 1.5
v -4.5 8 0.5
v -1.5 8 0.5
v 1.5 8 0.5
v 2.5 8 0.5
v 3.5 8 0.5
v 4.5 8 0.5
v -4.5 8 -0.5
v -3.5 8 -0.5
v -2.5 8 -0.5
v -1.5 8 -0.5
v 1.5 8 -0.5
v 4.5 8 -0.5
v -4.5 8 -1.5
v -3.5 8 -1.5
v -2.5 8 -1.5
v -1.5 8 -1.5
v 1.5 8 -1.5
v 4.5 8 -1.5
v -6.5 9 0.5
v -5.5 9 0.5
v 5.5 9 0.5
v 6.5 9 0.5
v -6.5 9 -0.5
v -5.5 9 -0.5
v 5.5 9 -0.5
v 6.5 9 -0.5
v -5.5 10 0.5
v -3.5 10 0.5
v 3.5 10 0.5
v 5.5 10 0.5
v -5.5 10 -0.5
v -3.5 10 -0.5
v 3.5 10 -0.5
v 5.5 10 -0.5
v -1.5 11 1.5
v -0.5 11 1.5
v 0.5 11 1.5
v 1.5 11 1.5
v -1.5 11 0.5
v -0.5 11 0.5
v 0.5 11 0.5
v 1.5 11 0.5
v -1.5 11 -0.5
v -0.5 11 -0.5
v 0.5 11 -0.5
v 1.5 11 -0.5
v -1.5 11 -1.5
v -0.5 11 -1.5
v 0.5 11 -1.5
v 1.5 11 -1.5
v -3.5 12 0.5
v -2.5 12 0.5
v 2.5 12 0.5
v 3.5 12 0.5
v -3.5 12 -0.5
v -2.5 12 -0.5
v 2.5 12 -0.5
v 3.5 12 -0.5
v -2.5 13 0.5
v 2.5 13 0.5
v -2.5 13 -0.5
v 2.5 13 -0.5

# faces
f 3/6/1 2/6/1 1/6/1
f 4/6/1 2/6/1 3/6/1
f 7/6/1 6/6/1 5/6/1
f 8/6/1 6/6/1 7/6/1
f 11/6/1 10/6/1 9/6/1
f 12/6/1 10/6/1 11/6/1
f 17/2/1 16/2/1 15/2/1
f 18/2/1 16/2/1 17/2/1
f 19/1/1 18/1/1 17/1/1
f 20/1/1 18/1/1 19/1/1
f 21/3/1 14/3/1 13/3/1
f 22/3/1 14/3/1 21/3/1
f 23/5/1 20/5/1 19/5/1
f 24/5/1 20/5/1 23/5/1
f 27/6/1 26/6/1 25/6/1
f 28/6/1 26/6/1 27/6/1
f 31/6/1 30/6/1 29/6/1
f 32/6/1 30/6/1 31/6/1
f 35/6/1 34/6/1 33/6/1
f 36/6/1 34/6/1 35/6/1
f 39/6/1 38/6/1 37/6/1
f 40/6/1 38/6/1 39/6/1
f 45/3/1 42/3/1 41/3/1
f 46/3/1 42/3/1 45/3/1
f 47/3/1 44/3/1 43/3/1
f 48/3/1 44/3/1 47/3/1
f 53/2/1 52/2/1 51/2/1
f 54/2/1 52/2/1 53/2/1
f 55/3/1 50/3/1 49/3/1
f 56/3/1 50/3/1 55/3/1
f 57/1/1 54/1/1 53/1/1
f 58/1/1 54/1/1 57/1/1
f 59/2/1 56/2/1 55/2/1
f 60/2/1 56/2/1 59/2/1
f 61/5/1 58/5/1 57/5/1
f 62/5/1 58/5/1 61/5/1
f 63/3/2 64/3/2 67/3/2
f 67/3/2 64/3/2 68/3/2
f 65/3/2 66/3/2 69/3/2
f 69/3/2 66/3/2 70/3/2
f 71/2/2 72/2/2 75/2/2
f 75/2/2 72/2/2 76/2/2
f 75/1/2 76/1/2 77/1/2
f 77/1/2 76/1/2 78/1/2
f 73/3/2 74/3/2 79/3/2
f 79/3/2 74/3/2 80/3/2
f 77/5/2 78/5/2 81/5/2
f 81/5/2 78/5/2 82/5/2
f 79/2/2 80/2/2 83/2/2
f 83/2/2 80/2/2 84/2/2
f 85/6/2 86/6/2 87/6/2
f 87/6/2 86/6/2 88/6/2
f 89/6/2 90/6/2 91/6/2
f 91/6/2 90/6/2 92/6/2
f 93/6/2 94/6/2 95/6/2
f 95/6/2 94/6/2 96/6/2
f 97/6/2 98/6/2 99/6/2
f 99/6/2 98/6/2 100/6/2
f 101/2/2 102/2/2 105/2/2
f 105/2/2 102/2/2 106/2/2
f 105/1/2 106/1/2 107/1/2
f 107/1/2 106/1/2 108/1/2
f 107/5/2 108/5/2 109/5/2
f 109/5/2 108/5/2 110/5/2
f 103/3/2 104/3/2 111/3/2
f 111/3/2 104/3/2 112/3/2
f 113/6/2 114/6/2 115/6/2
f 115/6/2 114/6/2 116/6/2
f 117/6/2 118/6/2 119/6/2
f 119/6/2 118/6/2 120/6/2
f 121/6/2 122/6/2 123/6/2
f 123/6/2 122/6/2 124/6/2
f 128/3/3 126/3/3 125/3/3
f 129/3/3 126/3/3 128/3/3
f 132/3/3 128/3/3 127/3/3
f 132/3/3 129/3/3 128/3/3
f 132/3/3 130/3/3 129/3/3
f 133/2/3 131/2/3 130/2/3
f 133/3/3 130/3/3 132/3/3
f 134/2/3 131/2/3 133/2/3
f 135/3/3 132/3/3 127/3/3
f 136/2/3 133/2/3 132/2/3
f 136/3/3 132/3/3 135/3/3
f 137/1/3 134/1/3 133/1/3
f 137/2/3 133/2/3 136/2/3
f 138/1/3 134/1/3 137/1/3
f 139/3/3 135/3/3 127/3/3
f 140/3/3 135/3/3 139/3/3
f 141/3/3 135/3/3 140/3/3
f 142/2/3 136/2/3 135/2/3
f 142/3/3 135/3/3 141/3/3
f 143/1/3 137/1/3 136/1/3
f 143/2/3 136/2/3 142/2/3
f 144/5/3 138/5/3 137/5/3
f 144/1/3 137/1/3 143/1/3
f 145/5/3 138/5/3 144/5/3
f 146/3/3 141/3/3 140/3/3
f 147/2/3 142/2/3 141/2/3
f 147/3/3 141/3/3 146/3/3
f 148/2/3 142/2/3 147/2/3
f 149/3/3 146/3/3 140/3/3
f 150/2/3 147/2/3 146/2/3
f 150/3/3 146/3/3 149/3/3
f 151/1/3 148/1/3 147/1/3
f 151/2/3 147/2/3 150/2/3
f 152/1/3 148/1/3 151/1/3
f 153/2/3 150/2/3 149/2/3
f 154/1/3 151/1/3 150/1/3
f 154/2/3 150/2/3 153/2/3
f 155/5/3 152/5/3 151/5/3
f 155/1/3 151/1/3 154/1/3
f 156/5/3 152/5/3 155/5/3
f 160/6/3 158/6/3 157/6/3
f 161/6/3 158/6/3 160/6/3
f 162/6/3 158/6/3 161/6/3
f 164/4/3 161/4/3 160/4/3
f 165/6/3 163/6/3 162/6/3
f 165/4/3 161/4/3 164/4/3
f 165/6/3 162/6/3 161/6/3
f 166/6/3 163/6/3 165/6/3
f 168/6/3 160/6/3 159/6/3
f 169/6/3 163/6/3 166/6/3
f 172/6/3 168/6/3 167/6/3
f 173/6/3 168/6/3 172/6/3
f 174/4/3 164/4/3 160/4/3
f 174/6/3 168/6/3 173/6/3
f 174/6/3 160/6/3 168/6/3
f 175/4/3 166/4/3 165/4/3
f 175/6/3 170/6/3 169/6/3
f 175/6/3 169/6/3 166/6/3
f 176/6/3 170/6/3 175/6/3
f 177/6/3 170/6/3 176/6/3
f 179/6/3 173/6/3 172/6/3
f 179/6/3 172/6/3 171/6/3
f 180/4/3 174/4/3 173/4/3
f 180/6/3 173/6/3 179/6/3
f 181/4/3 164/4/3 174/4/3
f 181/4/3 174/4/3 180/4/3
f 182/4/3 175/4/3 165/4/3
f 182/4/3 176/4/3 175/4/3
f 183/4/3 176/4/3 182/4/3
f 184/6/3 178/6/3 177/6/3
f 184/4/3 176/4/3 183/4/3
f 184/6/3 177/6/3 176/6/3
f 185/6/3 178/6/3 184/6/3
f 186/4/3 185/4/3 184/4/3
f 187/4/3 185/4/3 186/4/3
f 188/4/3 180/4/3 179/4/3
f 188/6/3 179/6/3 171/6/3
f 189/4/3 180/4/3 188/4/3
f 194/4/3 185/4/3 187/4/3
f 195/6/3 178/6/3 185/6/3
f 195/4/3 185/4/3 194/4/3
f 196/6/3 188/6/3 171/6/3
f 196/6/3 189/6/3 188/6/3
f 197/6/3 189/6/3 196/6/3
f 198/4/3 190/4/3 189/4/3
f 198/6/3 189/6/3 197/6/3
f 199/4/3 190/4/3 198/4/3
f 200/4/3 193/4/3 192/4/3
f 200/4/3 194/4/3 193/4/3
f 200/4/3 192/4/3 191/4/3
f 201/4/3 194/4/3 200/4/3
f 202/6/3 195/6/3 194/6/3
f 202/4/3 194/4/3 201/4/3
f 203/6/3 178/6/3 195/6/3
f 203/6/3 195/6/3 202/6/3
f 204/6/3 178/6/3 203/6/3
f 205/6/3 199/6/3 198/6/3
f 205/6/3 198/6/3 197/6/3
f 206/6/3 199/6/3 205/6/3
f 207/4/3 190/4/3 199/4/3
f 208/4/3 201/4/3 200/4/3
f 209/6/3 202/6/3 201/6/3
f 209/6/3 203/6/3 202/6/3
f 210/6/3 203/6/3 209/6/3
f 211/6/3 199/6/3 206/6/3
f 211/4/3 207/4/3 199/4/3
f 212/4/3 207/4/3 211/4/3
f 215/4/3 201/4/3 208/4/3
f 216/6/3 209/6/3 201/6/3
f 216/4/3 201/4/3 215/4/3
f 217/6/3 211/6/3 206/6/3
f 217/6/3 212/6/3 211/6/3
f 218/6/3 212/6/3 217/6/3
f 219/4/3 214/4/3 213/4/3
f 219/6/3 212/6/3 218/6/3
f 219/4/3 215/4/3 214/4/3
f 219/4/3 213/4/3 212/4/3
f 220/6/3 216/6/3 215/6/3
f 220/4/3 215/4/3 219/4/3
f 221/6/3 209/6/3 216/6/3
f 221/6/3 216/6/3 220/6/3
f 222/6/3 209/6/3 221/6/3
f 223/6/3 220/6/3 219/6/3
f 223/6/3 221/6/3 220/6/3
f 223/6/3 219/6/3 218/6/3
f 224/6/3 221/6/3 223/6/3
f 225/6/4 226/6/4 228/6/4
f 228/6/4 226/6/4 229/6/4
f 229/6/4 226/6/4 230/6/4
f 228/4/4 229/4/4 232/4/4
f 232/4/4 229/4/4 233/4/4
f 233/4/4 229/4/4 234/4/4
f 230/6/4 231/6/4 235/6/4
f 234/4/4 229/4/4 235/4/4
f 229/6/4 230/6/4 235/6/4
f 235/6/4 231/6/4 236/6/4
f 227/6/4 228/6/4 238/6/4
f 228/4/4 232/4/4 239/4/4
f 235/4/4 236/4/4 240/4/4
f 236/6/4 231/6/4 241/6/4
f 237/6/4 238/6/4 244/6/4
f 244/6/4 238/6/4 245/6/4
f 228/4/4 239/4/4 246/4/4
f 245/6/4 238/6/4 246/6/4
f 238/6/4 228/6/4 246/6/4
f 240/4/4 236/4/4 247/4/4
f 241/6/4 242/6/4 248/6/4
f 247/4/4 236/4/4 248/4/4
f 236/6/4 241/6/4 248/6/4
f 248/6/4 242/6/4 249/6/4
f 249/6/4 242/6/4 250/6/4
f 244/6/4 245/6/4 252/6/4
f 243/6/4 244/6/4 252/6/4
f 245/4/4 246/4/4 253/4/4
f 252/6/4 245/6/4 253/6/4
f 246/4/4 239/4/4 254/4/4
f 253/4/4 246/4/4 254/4/4
f 247/4/4 248/4/4 255/4/4
f 248/4/4 249/4/4 255/4/4
f 255/4/4 249/4/4 256/4/4
f 256/4/4 249/4/4 257/4/4
f 250/6/4 251/6/4 258/6/4
f 257/4/4 249/4/4 258/4/4
f 249/6/4 250/6/4 258/6/4
f 258/6/4 251/6/4 259/6/4
f 258/4/4 259/4/4 260/4/4
f 260/4/4 259/4/4 261/4/4
f 252/4/4 253/4/4 262/4/4
f 243/6/4 252/6/4 262/6/4
f 262/4/4 253/4/4 263/4/4
f 261/4/4 259/4/4 267/4/4
f 259/6/4 251/6/4 268/6/4
f 267/4/4 259/4/4 268/4/4
f 243/6/4 262/6/4 269/6/4
f 262/6/4 263/6/4 269/6/4
f 269/6/4 263/6/4 270/6/4
f 263/4/4 264/4/4 271/4/4
f 270/6/4 263/6/4 271/6/4
f 271/4/4 264/4/4 272/4/4
f 265/4/4 266/4/4 273/4/4
f 266/4/4 267/4/4 273/4/4
f 267/6/4 268/6/4 274/6/4
f 273/4/4 267/4/4 274/4/4
f 268/6/4 251/6/4 275/6/4
f 274/6/4 268/6/4 275/6/4
f 275/6/4 251/6/4 276/6/4
f 271/6/4 272/6/4 277/6/4
f 270/6/4 271/6/4 277/6/4
f 277/6/4 272/6/4 278/6/4
f 273/6/4 274/6/4 279/6/4
f 274/6/4 275/6/4 279/6/4
f 279/6/4 275/6/4 280/6/4
f 272/4/4 264/4/4 281/4/4
f 278/6/4 272/6/4 281/6/4
f 281/4/4 264/4/4 282/4/4
f 265/4/4 273/4/4 283/4/4
f 273/6/4 279/6/4 284/6/4
f 283/4/4 273/4/4 284/4/4
f 281/6/4 282/6/4 285/6/4
f 278/6/4 281/6/4 285/6/4
f 285/6/4 282/6/4 286/6/4
f 282/4/4 283/4/4 287/4/4
f 286/6/4 282/6/4 287/6/4
f 283/6/4 284/6/4 288/6/4
f 287/4/4 283/4/4 288/4/4
f 284/6/4 279/6/4 289/6/4
f 288/6/4 284/6/4 289/6/4
f 289/6/4 279/6/4 290/6/4
f 287/6/4 288/6/4 291/6/4
f 288/6/4 289/6/4 291/6/4
f 286/6/4 287/6/4 291/6/4
f 291/6/4 289/6/4 292/6/4
f 293/2/4 294/2/4 297/2/4
f 294/1/4 295/1/4 298/1/4
f 297/2/4 294/2/4 298/2/4
f 295/5/4 296/5/4 299/5/4
f 298/1/4 295/1/4 299/1/4
f 299/5/4 296/5/4 300/5/4
f 297/3/4 298/3/4 301/3/4
f 298/2/4 299/2/4 301/2/4
f 299/1/4 300/1/4 302/1/4
f 301/2/4 299/2/4 302/2/4
f 302/1/4 300/1/4 303/1/4
f 297/3/4 301/3/4 305/3/4
f 301/3/4 302/3/4 305/3/4
f 302/2/4 303/2/4 306/2/4
f 305/3/4 302/3/4 306/3/4
f 306/2/4 303/2/4 307/2/4
f 306/3/4 307/3/4 311/3/4
f 305/3/4 306/3/4 311/3/4
f 304/3/4 305/3/4 311/3/4
f 307/2/4 308/2/4 311/2/4
f 308/1/4 309/1/4 312/1/4
f 311/2/4 308/2/4 312/2/4
f 309/5/4 310/5/4 313/5/4
f 312/1/4 309/1/4 313/1/4
f 313/5/4 310/5/4 314/5/4
f 311/3/4 312/3/4 315/3/4
f 312/2/4 313/2/4 315/2/4
f 313/1/4 314/1/4 316/1/4
f 315/2/4 313/2/4 316/2/4
f 316/1/4 314/1/4 317/1/4
f 304/3/4 311/3/4 318/3/4
f 311/3/4 315/3/4 318/3/4
f 315/3/4 316/3/4 318/3/4
f 318/3/4 316/3/4 319/3/4
f 319/3/4 316/3/4 320/3/4
f 316/2/4 317/2/4 321/2/4
f 320/3/4 316/3/4 321/3/4
f 321/2/4 317/2/4 322/2/4
f 319/3/4 320/3/4 323/3/4
f 323/3/4 320/3/4 324/3/4
f 327/6/5 326/6/5 325/6/5
f 328/6/5 326/6/5 327/6/5
f 333/6/5 330/6/5 329/6/5
f 334/6/5 330/6/5 333/6/5
f 335/6/5 332/6/5 331/6/5
f 336/6/5 332/6/5 335/6/5
f 339/3/5 338/3/5 337/3/5
f 340/3/5 338/3/5 339/3/5
f 343/3/5 342/3/5 341/3/5
f 344/3/5 342/3/5 343/3/5
f 349/6/5 346/6/5 345/6/5
f 350/6/5 346/6/5 349/6/5
f 351/6/5 348/6/5 347/6/5
f 352/6/5 348/6/5 351/6/5
f 357/6/5 354/6/5 353/6/5
f 358/6/5 354/6/5 357/6/5
f 359/6/5 356/6/5 355/6/5
f 360/6/5 356/6/5 359/6/5
f 366/3/5 362/3/5 361/3/5
f 367/3/5 362/3/5 366/3/5
f 368/3/5 364/3/5 363/3/5
f 369/2/5 365/2/5 364/2/5
f 369/3/5 364/3/5 368/3/5
f 370/2/5 365/2/5 369/2/5
f 376/2/5 372/2/5 371/2/5
f 377/3/5 373/3/5 372/3/5
f 377/2/5 372/2/5 376/2/5
f 378/3/5 373/3/5 377/3/5
f 379/3/5 375/3/5 374/3/5
f 380/3/5 375/3/5 379/3/5
f 381/3/6 382/3/6 387/3/6
f 387/3/6 382/3/6 388/3/6
f 383/2/6 384/2/6 389/2/6
f 384/1/6 385/1/6 390/1/6
f 389/2/6 384/2/6 390/2/6
f 385/5/6 386/5/6 391/5/6
f 390/1/6 385/1/6 391/1/6
f 391/5/6 386/5/6 392/5/6
f 393/5/6 394/5/6 399/5/6
f 394/1/6 395/1/6 400/1/6
f 399/5/6 394/5/6 400/5/6
f 395/2/6 396/2/6 401/2/6
f 400/1/6 395/1/6 401/1/6
f 401/2/6 396/2/6 402/2/6
f 397/3/6 398/3/6 403/3/6
f 403/3/6 398/3/6 404/3/6
f 405/6/6 406/6/6 409/6/6
f 409/6/6 406/6/6 410/6/6
f 407/6/6 408/6/6 411/6/6
f 411/6/6 408/6/6 412/6/6
f 413/6/6 414/6/6 417/6/6
f 417/6/6 414/6/6 418/6/6
f 415/6/6 416/6/6 419/6/6
f 419/6/6 416/6/6 420/6/6
f 421/2/6 422/2/6 425/2/6
f 422/1/6 423/1/6 426/1/6
f 425/2/6 422/2/6 426/2/6
f 423/5/6 424/5/6 427/5/6
f 426/1/6 423/1/6 427/1/6
f 427/5/6 424/5/6 428/5/6
f 429/5/6 430/5/6 433/5/6
f 430/1/6 431/1/6 434/1/6
f 433/5/6 430/5/6 434/5/6
f 431/2/6 432/2/6 435/2/6
f 434/1/6 431/1/6 435/1/6
f 435/2/6 432/2/6 436/2/6
f 437/6/6 438/6/6 441/6/6
f 441/6/6 438/6/6 442/6/6
f 439/6/6 440/6/6 443/6/6
f 443/6/6 440/6/6 444/6/6
f 445/6/6 446/6/6 447/6/6
f 447/6/6 446/6/6 448/6/6
