# MagicaVoxel @ Ephtracy

# material
mtllib Bonus_Speed.mtl
usemtl palette

# normals
vn -1 0 0
vn 1 0 0
vn 0 0 1
vn 0 0 -1
vn 0 -1 0
vn 0 1 0

# texcoords
vt 0.724609 0.5
vt 0.767578 0.5
vt 0.982422 0.5

# verts
v -6 1 0.5
v -6 1 -0.5
v -6 3 0.5
v -6 3 -0.5
v -6 6 0.5
v -6 6 -0.5
v -6 8 0.5
v -6 8 -0.5
v -5 0 0.5
v -5 0 -0.5
v -5 1 0.5
v -5 1 -0.5
v -5 3 0.5
v -5 3 -0.5
v -5 4 0.5
v -5 4 -0.5
v -5 5 0.5
v -5 5 -0.5
v -5 6 0.5
v -5 6 -0.5
v -5 8 0.5
v -5 8 -0.5
v -5 9 0.5
v -5 9 -0.5
v -4 2 1.5
v -4 2 0.5
v -4 2 -0.5
v -4 2 -1.5
v -4 3 1.5
v -4 3 0.5
v -4 3 -0.5
v -4 3 -1.5
v -4 4 0.5
v -4 4 -0.5
v -4 5 0.5
v -4 5 -0.5
v -4 6 1.5
v -4 6 0.5
v -4 6 -0.5
v -4 6 -1.5
v -4 7 1.5
v -4 7 0.5
v -4 7 -0.5
v -4 7 -1.5
v -3 3 1.5
v -3 3 0.5
v -3 3 -0.5
v -3 3 -1.5
v -3 4 1.5
v -3 4 0.5
v -3 4 -0.5
v -3 4 -1.5
v -3 5 1.5
v -3 5 0.5
v -3 5 -0.5
v -3 5 -1.5
v -3 6 1.5
v -3 6 0.5
v -3 6 -0.5
v -3 6 -1.5
v -2 4 1.5
v -2 4 0.5
v -2 4 -0.5
v -2 4 -1.5
v -2 5 1.5
v -2 5 0.5
v -2 5 -0.5
v -2 5 -1.5
v -1 1 0.5
v -1 1 -0.5
v -1 2 0.5
v -1 2 -0.5
v -1 7 0.5
v -1 7 -0.5
v -1 8 0.5
v -1 8 -0.5
v 0 0 0.5
v 0 0 -0.5
v 0 1 0.5
v 0 1 -0.5
v 0 8 0.5
v 0 8 -0.5
v 0 9 0.5
v 0 9 -0.5
v 1 2 1.5
v 1 2 0.5
v 1 2 -0.5
v 1 2 -1.5
v 1 3 1.5
v 1 3 0.5
v 1 3 -0.5
v 1 3 -1.5
v 1 6 1.5
v 1 6 0.5
v 1 6 -0.5
v 1 6 -1.5
v 1 7 1.5
v 1 7 0.5
v 1 7 -0.5
v 1 7 -1.5
v 2 3 1.5
v 2 3 0.5
v 2 3 -0.5
v 2 3 -1.5
v 2 4 1.5
v 2 4 0.5
v 2 4 -0.5
v 2 4 -1.5
v 2 5 1.5
v 2 5 0.5
v 2 5 -0.5
v 2 5 -1.5
v 2 6 1.5
v 2 6 0.5
v 2 6 -0.5
v 2 6 -1.5
v 3 4 1.5
v 3 4 0.5
v 3 4 -0.5
v 3 4 -1.5
v 3 5 1.5
v 3 5 0.5
v 3 5 -0.5
v 3 5 -1.5
v -3 0 0.5
v -3 0 -0.5
v -3 1 0.5
v -3 1 -0.5
v -3 2 1.5
v -3 2 0.5
v -3 2 -0.5
v -3 2 -1.5
v -3 3 1.5
v -3 3 0.5
v -3 3 -0.5
v -3 3 -1.5
v -3 6 1.5
v -3 6 0.5
v -3 6 -0.5
v -3 6 -1.5
v -3 7 1.5
v -3 7 0.5
v -3 7 -0.5
v -3 7 -1.5
v -3 8 0.5
v -3 8 -0.5
v -3 9 0.5
v -3 9 -0.5
v -2 1 0.5
v -2 1 -0.5
v -2 2 0.5
v -2 2 -0.5
v -2 3 1.5
v -2 3 0.5
v -2 3 -0.5
v -2 3 -1.5
v -2 4 1.5
v -2 4 0.5
v -2 4 -0.5
v -2 4 -1.5
v -2 5 1.5
v -2 5 0.5
v -2 5 -0.5
v -2 5 -1.5
v -2 6 1.5
v -2 6 0.5
v -2 6 -0.5
v -2 6 -1.5
v -2 7 0.5
v -2 7 -0.5
v -2 8 0.5
v -2 8 -0.5
v -1 4 1.5
v -1 4 0.5
v -1 4 -0.5
v -1 4 -1.5
v -1 5 1.5
v -1 5 0.5
v -1 5 -0.5
v -1 5 -1.5
v 2 0 0.5
v 2 0 -0.5
v 2 1 0.5
v 2 1 -0.5
v 2 2 1.5
v 2 2 0.5
v 2 2 -0.5
v 2 2 -1.5
v 2 3 1.5
v 2 3 0.5
v 2 3 -0.5
v 2 3 -1.5
v 2 6 1.5
v 2 6 0.5
v 2 6 -0.5
v 2 6 -1.5
v 2 7 1.5
v 2 7 0.5
v 2 7 -0.5
v 2 7 -1.5
v 2 8 0.5
v 2 8 -0.5
v 2 9 0.5
v 2 9 -0.5
v 3 1 0.5
v 3 1 -0.5
v 3 2 0.5
v 3 2 -0.5
v 3 3 1.5
v 3 3 0.5
v 3 3 -0.5
v 3 3 -1.5
v 3 4 1.5
v 3 4 0.5
v 3 4 -0.5
v 3 4 -1.5
v 3 5 1.5
v 3 5 0.5
v 3 5 -0.5
v 3 5 -1.5
v 3 6 1.5
v 3 6 0.5
v 3 6 -0.5
v 3 6 -1.5
v 3 7 0.5
v 3 7 -0.5
v 3 8 0.5
v 3 8 -0.5
v 4 2 0.5
v 4 2 -0.5
v 4 3 0.5
v 4 3 -0.5
v 4 4 1.5
v 4 4 0.5
v 4 4 -0.5
v 4 4 -1.5
v 4 5 1.5
v 4 5 0.5
v 4 5 -0.5
v 4 5 -1.5
v 4 6 0.5
v 4 6 -0.5
v 4 7 0.5
v 4 7 -0.5
v 5 3 0.5
v 5 3 -0.5
v 5 4 0.5
v 5 4 -0.5
v 5 5 0.5
v 5 5 -0.5
v 5 6 0.5
v 5 6 -0.5
v 6 4 0.5
v 6 4 -0.5
v 6 5 0.5
v 6 5 -0.5
v -4 2 1.5
v -4 3 1.5
v -4 6 1.5
v -4 7 1.5
v -3 2 1.5
v -3 3 1.5
v -3 4 1.5
v -3 5 1.5
v -3 6 1.5
v -3 7 1.5
v -2 3 1.5
v -2 4 1.5
v -2 5 1.5
v -2 6 1.5
v -1 4 1.5
v -1 5 1.5
v 1 2 1.5
v 1 3 1.5
v 1 6 1.5
v 1 7 1.5
v 2 2 1.5
v 2 3 1.5
v 2 4 1.5
v 2 5 1.5
v 2 6 1.5
v 2 7 1.5
v 3 3 1.5
v 3 4 1.5
v 3 5 1.5
v 3 6 1.5
v 4 4 1.5
v 4 5 1.5
v -6 1 0.5
v -6 3 0.5
v -6 6 0.5
v -6 8 0.5
v -5 0 0.5
v -5 1 0.5
v -5 3 0.5
v -5 4 0.5
v -5 5 0.5
v -5 6 0.5
v -5 8 0.5
v -5 9 0.5
v -4 2 0.5
v -4 3 0.5
v -4 4 0.5
v -4 5 0.5
v -4 6 0.5
v -4 7 0.5
v -3 0 0.5
v -3 1 0.5
v -3 2 0.5
v -3 3 0.5
v -3 4 0.5
v -3 5 0.5
v -3 6 0.5
v -3 7 0.5
v -3 8 0.5
v -3 9 0.5
v -2 1 0.5
v -2 2 0.5
v -2 3 0.5
v -2 4 0.5
v -2 5 0.5
v -2 6 0.5
v -2 7 0.5
v -2 8 0.5
v -1 1 0.5
v -1 2 0.5
v -1 3 0.5
v -1 4 0.5
v -1 5 0.5
v -1 6 0.5
v -1 7 0.5
v -1 8 0.5
v 0 0 0.5
v 0 1 0.5
v 0 3 0.5
v 0 4 0.5
v 0 5 0.5
v 0 6 0.5
v 0 8 0.5
v 0 9 0.5
v 1 2 0.5
v 1 3 0.5
v 1 4 0.5
v 1 5 0.5
v 1 6 0.5
v 1 7 0.5
v 2 0 0.5
v 2 1 0.5
v 2 2 0.5
v 2 3 0.5
v 2 4 0.5
v 2 5 0.5
v 2 6 0.5
v 2 7 0.5
v 2 8 0.5
v 2 9 0.5
v 3 1 0.5
v 3 2 0.5
v 3 3 0.5
v 3 4 0.5
v 3 5 0.5
v 3 6 0.5
v 3 7 0.5
v 3 8 0.5
v 4 2 0.5
v 4 3 0.5
v 4 4 0.5
v 4 5 0.5
v 4 6 0.5
v 4 7 0.5
v 5 3 0.5
v 5 4 0.5
v 5 5 0.5
v 5 6 0.5
v 6 4 0.5
v 6 5 0.5
v -6 1 -0.5
v -6 3 -0.5
v -6 6 -0.5
v -6 8 -0.5
v -5 0 -0.5
v -5 1 -0.5
v -5 3 -0.5
v -5 4 -0.5
v -5 5 -0.5
v -5 6 -0.5
v -5 8 -0.5
v -5 9 -0.5
v -4 2 -0.5
v -4 3 -0.5
v -4 4 -0.5
v -4 5 -0.5
v -4 6 -0.5
v -4 7 -0.5
v -3 0 -0.5
v -3 1 -0.5
v -3 2 -0.5
v -3 3 -0.5
v -3 4 -0.5
v -3 5 -0.5
v -3 6 -0.5
v -3 7 -0.5
v -3 8 -0.5
v -3 9 -0.5
v -2 1 -0.5
v -2 2 -0.5
v -2 3 -0.5
v -2 4 -0.5
v -2 5 -0.5
v -2 6 -0.5
v -2 7 -0.5
v -2 8 -0.5
v -1 1 -0.5
v -1 2 -0.5
v -1 3 -0.5
v -1 4 -0.5
v -1 5 -0.5
v -1 6 -0.5
v -1 7 -0.5
v -1 8 -0.5
v 0 0 -0.5
v 0 1 -0.5
v 0 3 -0.5
v 0 4 -0.5
v 0 5 -0.5
v 0 6 -0.5
v 0 8 -0.5
v 0 9 -0.5
v 1 2 -0.5
v 1 3 -0.5
v 1 4 -0.5
v 1 5 -0.5
v 1 6 -0.5
v 1 7 -0.5
v 2 0 -0.5
v 2 1 -0.5
v 2 2 -0.5
v 2 3 -0.5
v 2 4 -0.5
v 2 5 -0.5
v 2 6 -0.5
v 2 7 -0.5
v 2 8 -0.5
v 2 9 -0.5
v 3 1 -0.5
v 3 2 -0.5
v 3 3 -0.5
v 3 4 -0.5
v 3 5 -0.5
v 3 6 -0.5
v 3 7 -0.5
v 3 8 -0.5
v 4 2 -0.5
v 4 3 -0.5
v 4 4 -0.5
v 4 5 -0.5
v 4 6 -0.5
v 4 7 -0.5
v 5 3 -0.5
v 5 4 -0.5
v 5 5 -0.5
v 5 6 -0.5
v 6 4 -0.5
v 6 5 -0.5
v -4 2 -1.5
v -4 3 -1.5
v -4 6 -1.5
v -4 7 -1.5
v -3 2 -1.5
v -3 3 -1.5
v -3 4 -1.5
v -3 5 -1.5
v -3 6 -1.5
v -3 7 -1.5
v -2 3 -1.5
v -2 4 -1.5
v -2 5 -1.5
v -2 6 -1.5
v -1 4 -1.5
v -1 5 -1.5
v 1 2 -1.5
v 1 3 -1.5
v 1 6 -1.5
v 1 7 -1.5
v 2 2 -1.5
v 2 3 -1.5
v 2 4 -1.5
v 2 5 -1.5
v 2 6 -1.5
v 2 7 -1.5
v 3 3 -1.5
v 3 4 -1.5
v 3 5 -1.5
v 3 6 -1.5
v 4 4 -1.5
v 4 5 -1.5
v -5 0 0.5
v -3 0 0.5
v 0 0 0.5
v 2 0 0.5
v -5 0 -0.5
v -3 0 -0.5
v 0 0 -0.5
v 2 0 -0.5
v -6 1 0.5
v -5 1 0.5
v -3 1 0.5
v -2 1 0.5
v -1 1 0.5
v 0 1 0.5
v 2 1 0.5
v 3 1 0.5
v -6 1 -0.5
v -5 1 -0.5
v -3 1 -0.5
v -2 1 -0.5
v -1 1 -0.5
v 0 1 -0.5
v 2 1 -0.5
v 3 1 -0.5
v -4 2 1.5
v -3 2 1.5
v 1 2 1.5
v 2 2 1.5
v -4 2 0.5
v -3 2 0.5
v -2 2 0.5
v -1 2 0.5
v 1 2 0.5
v 2 2 0.5
v 3 2 0.5
v 4 2 0.5
v -4 2 -0.5
v -3 2 -0.5
v -2 2 -0.5
v -1 2 -0.5
v 1 2 -0.5
v 2 2 -0.5
v 3 2 -0.5
v 4 2 -0.5
v -4 2 -1.5
v -3 2 -1.5
v 1 2 -1.5
v 2 2 -1.5
v -3 3 1.5
v -2 3 1.5
v 2 3 1.5
v 3 3 1.5
v -3 3 0.5
v -2 3 0.5
v 2 3 0.5
v 3 3 0.5
v 4 3 0.5
v 5 3 0.5
v -3 3 -0.5
v -2 3 -0.5
v 2 3 -0.5
v 3 3 -0.5
v 4 3 -0.5
v 5 3 -0.5
v -3 3 -1.5
v -2 3 -1.5
v 2 3 -1.5
v 3 3 -1.5
v -2 4 1.5
v -1 4 1.5
v 3 4 1.5
v 4 4 1.5
v -2 4 0.5
v -1 4 0.5
v 3 4 0.5
v 4 4 0.5
v 5 4 0.5
v 6 4 0.5
v -2 4 -0.5
v -1 4 -0.5
v 3 4 -0.5
v 4 4 -0.5
v 5 4 -0.5
v 6 4 -0.5
v -2 4 -1.5
v -1 4 -1.5
v 3 4 -1.5
v 4 4 -1.5
v -3 5 1.5
v -2 5 1.5
v 2 5 1.5
v 3 5 1.5
v -5 5 0.5
v -4 5 0.5
v -3 5 0.5
v -2 5 0.5
v 2 5 0.5
v 3 5 0.5
v -5 5 -0.5
v -4 5 -0.5
v -3 5 -0.5
v -2 5 -0.5
v 2 5 -0.5
v 3 5 -0.5
v -3 5 -1.5
v -2 5 -1.5
v 2 5 -1.5
v 3 5 -1.5
v -4 6 1.5
v -3 6 1.5
v 1 6 1.5
v 2 6 1.5
v -6 6 0.5
v -5 6 0.5
v -4 6 0.5
v -3 6 0.5
v 1 6 0.5
v 2 6 0.5
v -6 6 -0.5
v -5 6 -0.5
v -4 6 -0.5
v -3 6 -0.5
v 1 6 -0.5
v 2 6 -0.5
v -4 6 -1.5
v -3 6 -1.5
v 1 6 -1.5
v 2 6 -1.5
v -4 3 1.5
v -3 3 1.5
v 1 3 1.5
v 2 3 1.5
v -6 3 0.5
v -5 3 0.5
v -4 3 0.5
v -3 3 0.5
v 1 3 0.5
v 2 3 0.5
v -6 3 -0.5
v -5 3 -0.5
v -4 3 -0.5
v -3 3 -0.5
v 1 3 -0.5
v 2 3 -0.5
v -4 3 -1.5
v -3 3 -1.5
v 1 3 -1.5
v 2 3 -1.5
v -3 4 1.5
v -2 4 1.5
v 2 4 1.5
v 3 4 1.5
v -5 4 0.5
v -4 4 0.5
v -3 4 0.5
v -2 4 0.5
v 2 4 0.5
v 3 4 0.5
v -5 4 -0.5
v -4 4 -0.5
v -3 4 -0.5
v -2 4 -0.5
v 2 4 -0.5
v 3 4 -0.5
v -3 4 -1.5
v -2 4 -1.5
v 2 4 -1.5
v 3 4 -1.5
v -2 5 1.5
v -1 5 1.5
v 3 5 1.5
v 4 5 1.5
v -2 5 0.5
v -1 5 0.5
v 3 5 0.5
v 4 5 0.5
v 5 5 0.5
v 6 5 0.5
v -2 5 -0.5
v -1 5 -0.5
v 3 5 -0.5
v 4 5 -0.5
v 5 5 -0.5
v 6 5 -0.5
v -2 5 -1.5
v -1 5 -1.5
v 3 5 -1.5
v 4 5 -1.5
v -3 6 1.5
v -2 6 1.5
v 2 6 1.5
v 3 6 1.5
v -3 6 0.5
v -2 6 0.5
v 2 6 0.5
v 3 6 0.5
v 4 6 0.5
v 5 6 0.5
v -3 6 -0.5
v -2 6 -0.5
v 2 6 -0.5
v 3 6 -0.5
v 4 6 -0.5
v 5 6 -0.5
v -3 6 -1.5
v -2 6 -1.5
v 2 6 -1.5
v 3 6 -1.5
v -4 7 1.5
v -3 7 1.5
v 1 7 1.5
v 2 7 1.5
v -4 7 0.5
v -3 7 0.5
v -2 7 0.5
v -1 7 0.5
v 1 7 0.5
v 2 7 0.5
v 3 7 0.5
v 4 7 0.5
v -4 7 -0.5
v -3 7 -0.5
v -2 7 -0.5
v -1 7 -0.5
v 1 7 -0.5
v 2 7 -0.5
v 3 7 -0.5
v 4 7 -0.5
v -4 7 -1.5
v -3 7 -1.5
v 1 7 -1.5
v 2 7 -1.5
v -6 8 0.5
v -5 8 0.5
v -3 8 0.5
v -2 8 0.5
v -1 8 0.5
v 0 8 0.5
v 2 8 0.5
v 3 8 0.5
v -6 8 -0.5
v -5 8 -0.5
v -3 8 -0.5
v -2 8 -0.5
v -1 8 -0.5
v 0 8 -0.5
v 2 8 -0.5
v 3 8 -0.5
v -5 9 0.5
v -3 9 0.5
v 0 9 0.5
v 2 9 0.5
v -5 9 -0.5
v -3 9 -0.5
v 0 9 -0.5
v 2 9 -0.5

# faces
f 3/3/1 2/3/1 1/3/1
f 4/3/1 2/3/1 3/3/1
f 7/3/1 6/3/1 5/3/1
f 8/3/1 6/3/1 7/3/1
f 11/3/1 10/3/1 9/3/1
f 12/3/1 10/3/1 11/3/1
f 15/3/1 14/3/1 13/3/1
f 16/3/1 14/3/1 15/3/1
f 19/3/1 18/3/1 17/3/1
f 20/3/1 18/3/1 19/3/1
f 23/3/1 22/3/1 21/3/1
f 24/3/1 22/3/1 23/3/1
f 29/1/1 26/1/1 25/1/1
f 30/1/1 26/1/1 29/1/1
f 31/1/1 28/1/1 27/1/1
f 32/1/1 28/1/1 31/1/1
f 35/3/1 34/3/1 33/3/1
f 36/3/1 34/3/1 35/3/1
f 41/1/1 38/1/1 37/1/1
f 42/1/1 38/1/1 41/1/1
f 43/1/1 40/1/1 39/1/1
f 44/1/1 40/1/1 43/1/1
f 49/1/1 46/1/1 45/1/1
f 50/1/1 46/1/1 49/1/1
f 51/1/1 48/1/1 47/1/1
f 52/1/1 48/1/1 51/1/1
f 57/1/1 54/1/1 53/1/1
f 58/1/1 54/1/1 57/1/1
f 59/1/1 56/1/1 55/1/1
f 60/1/1 56/1/1 59/1/1
f 65/1/1 62/1/1 61/1/1
f 66/1/1 62/1/1 65/1/1
f 67/1/1 64/1/1 63/1/1
f 68/1/1 64/1/1 67/1/1
f 71/3/1 70/3/1 69/3/1
f 72/3/1 70/3/1 71/3/1
f 75/3/1 74/3/1 73/3/1
f 76/3/1 74/3/1 75/3/1
f 79/3/1 78/3/1 77/3/1
f 80/3/1 78/3/1 79/3/1
f 83/3/1 82/3/1 81/3/1
f 84/3/1 82/3/1 83/3/1
f 89/1/1 86/1/1 85/1/1
f 90/1/1 86/1/1 89/1/1
f 91/1/1 88/1/1 87/1/1
f 92/1/1 88/1/1 91/1/1
f 97/1/1 94/1/1 93/1/1
f 98/1/1 94/1/1 97/1/1
f 99/1/1 96/1/1 95/1/1
f 100/1/1 96/1/1 99/1/1
f 105/1/1 102/1/1 101/1/1
f 106/1/1 102/1/1 105/1/1
f 107/1/1 104/1/1 103/1/1
f 108/1/1 104/1/1 107/1/1
f 113/1/1 110/1/1 109/1/1
f 114/1/1 110/1/1 113/1/1
f 115/1/1 112/1/1 111/1/1
f 116/1/1 112/1/1 115/1/1
f 121/1/1 118/1/1 117/1/1
f 122/1/1 118/1/1 121/1/1
f 123/1/1 120/1/1 119/1/1
f 124/1/1 120/1/1 123/1/1
f 125/3/2 126/3/2 127/3/2
f 127/3/2 126/3/2 128/3/2
f 129/1/2 130/1/2 133/1/2
f 133/1/2 130/1/2 134/1/2
f 131/1/2 132/1/2 135/1/2
f 135/1/2 132/1/2 136/1/2
f 137/1/2 138/1/2 141/1/2
f 141/1/2 138/1/2 142/1/2
f 139/1/2 140/1/2 143/1/2
f 143/1/2 140/1/2 144/1/2
f 145/3/2 146/3/2 147/3/2
f 147/3/2 146/3/2 148/3/2
f 149/3/2 150/3/2 151/3/2
f 151/3/2 150/3/2 152/3/2
f 153/1/2 154/1/2 157/1/2
f 157/1/2 154/1/2 158/1/2
f 155/1/2 156/1/2 159/1/2
f 159/1/2 156/1/2 160/1/2
f 161/1/2 162/1/2 165/1/2
f 165/1/2 162/1/2 166/1/2
f 163/1/2 164/1/2 167/1/2
f 167/1/2 164/1/2 168/1/2
f 169/3/2 170/3/2 171/3/2
f 171/3/2 170/3/2 172/3/2
f 173/1/2 174/1/2 177/1/2
f 177/1/2 174/1/2 178/1/2
f 175/1/2 176/1/2 179/1/2
f 179/1/2 176/1/2 180/1/2
f 181/3/2 182/3/2 183/3/2
f 183/3/2 182/3/2 184/3/2
f 185/1/2 186/1/2 189/1/2
f 189/1/2 186/1/2 190/1/2
f 187/1/2 188/1/2 191/1/2
f 191/1/2 188/1/2 192/1/2
f 193/1/2 194/1/2 197/1/2
f 197/1/2 194/1/2 198/1/2
f 195/1/2 196/1/2 199/1/2
f 199/1/2 196/1/2 200/1/2
f 201/3/2 202/3/2 203/3/2
f 203/3/2 202/3/2 204/3/2
f 205/3/2 206/3/2 207/3/2
f 207/3/2 206/3/2 208/3/2
f 209/1/2 210/1/2 213/1/2
f 213/1/2 210/1/2 214/1/2
f 211/1/2 212/1/2 215/1/2
f 215/1/2 212/1/2 216/1/2
f 217/1/2 218/1/2 221/1/2
f 221/1/2 218/1/2 222/1/2
f 219/1/2 220/1/2 223/1/2
f 223/1/2 220/1/2 224/1/2
f 225/3/2 226/3/2 227/3/2
f 227/3/2 226/3/2 228/3/2
f 229/3/2 230/3/2 231/3/2
f 231/3/2 230/3/2 232/3/2
f 233/1/2 234/1/2 237/1/2
f 237/1/2 234/1/2 238/1/2
f 235/1/2 236/1/2 239/1/2
f 239/1/2 236/1/2 240/1/2
f 241/3/2 242/3/2 243/3/2
f 243/3/2 242/3/2 244/3/2
f 245/3/2 246/3/2 247/3/2
f 247/3/2 246/3/2 248/3/2
f 249/3/2 250/3/2 251/3/2
f 251/3/2 250/3/2 252/3/2
f 253/3/2 254/3/2 255/3/2
f 255/3/2 254/3/2 256/3/2
f 261/1/3 258/1/3 257/1/3
f 262/1/3 258/1/3 261/1/3
f 265/1/3 260/1/3 259/1/3
f 266/1/3 260/1/3 265/1/3
f 267/1/3 263/1/3 262/1/3
f 268/1/3 263/1/3 267/1/3
f 269/1/3 265/1/3 264/1/3
f 270/1/3 265/1/3 269/1/3
f 271/1/3 269/1/3 268/1/3
f 272/1/3 269/1/3 271/1/3
f 277/1/3 274/1/3 273/1/3
f 278/1/3 274/1/3 277/1/3
f 281/1/3 276/1/3 275/1/3
f 282/1/3 276/1/3 281/1/3
f 283/1/3 279/1/3 278/1/3
f 284/1/3 279/1/3 283/1/3
f 285/1/3 281/1/3 280/1/3
f 286/1/3 281/1/3 285/1/3
f 287/1/3 285/1/3 284/1/3
f 288/1/3 285/1/3 287/1/3
f 294/3/3 290/3/3 289/3/3
f 295/3/3 290/3/3 294/3/3
f 298/3/3 292/3/3 291/3/3
f 299/3/3 292/3/3 298/3/3
f 301/2/3 295/2/3 294/2/3
f 302/3/3 296/3/3 295/3/3
f 302/2/3 295/2/3 301/2/3
f 303/3/3 296/3/3 302/3/3
f 304/3/3 298/3/3 297/3/3
f 305/2/3 299/2/3 298/2/3
f 305/3/3 298/3/3 304/3/3
f 306/2/3 299/2/3 305/2/3
f 307/3/3 294/3/3 293/3/3
f 308/2/3 301/2/3 294/2/3
f 308/3/3 294/3/3 307/3/3
f 309/2/3 301/2/3 308/2/3
f 310/2/3 303/2/3 302/2/3
f 311/3/3 304/3/3 303/3/3
f 311/2/3 303/2/3 310/2/3
f 312/2/3 305/2/3 304/2/3
f 312/3/3 304/3/3 311/3/3
f 313/2/3 305/2/3 312/2/3
f 314/2/3 299/2/3 306/2/3
f 315/3/3 300/3/3 299/3/3
f 315/2/3 299/2/3 314/2/3
f 316/3/3 300/3/3 315/3/3
f 317/3/3 309/3/3 308/3/3
f 318/2/3 310/2/3 309/2/3
f 318/3/3 309/3/3 317/3/3
f 319/2/3 310/2/3 318/2/3
f 320/2/3 312/2/3 311/2/3
f 321/2/3 312/2/3 320/2/3
f 322/2/3 314/2/3 313/2/3
f 323/3/3 315/3/3 314/3/3
f 323/2/3 314/2/3 322/2/3
f 324/3/3 315/3/3 323/3/3
f 326/3/3 319/3/3 318/3/3
f 327/2/3 320/2/3 319/2/3
f 327/3/3 319/3/3 326/3/3
f 328/2/3 320/2/3 327/2/3
f 329/2/3 322/2/3 321/2/3
f 330/3/3 323/3/3 322/3/3
f 330/2/3 322/2/3 329/2/3
f 331/3/3 323/3/3 330/3/3
f 334/3/3 328/3/3 327/3/3
f 334/3/3 326/3/3 325/3/3
f 334/3/3 327/3/3 326/3/3
f 335/3/3 328/3/3 334/3/3
f 336/2/3 329/2/3 328/2/3
f 336/3/3 328/3/3 335/3/3
f 337/3/3 332/3/3 331/3/3
f 337/2/3 329/2/3 336/2/3
f 337/3/3 331/3/3 330/3/3
f 337/3/3 330/3/3 329/3/3
f 338/3/3 332/3/3 337/3/3
f 339/3/3 332/3/3 338/3/3
f 341/2/3 335/2/3 334/2/3
f 342/3/3 336/3/3 335/3/3
f 342/2/3 335/2/3 341/2/3
f 342/3/3 337/3/3 336/3/3
f 342/3/3 338/3/3 337/3/3
f 343/3/3 338/3/3 342/3/3
f 344/3/3 338/3/3 343/3/3
f 345/2/3 339/2/3 338/2/3
f 345/3/3 338/3/3 344/3/3
f 346/2/3 339/2/3 345/2/3
f 347/3/3 334/3/3 333/3/3
f 348/2/3 341/2/3 334/2/3
f 348/3/3 334/3/3 347/3/3
f 349/2/3 341/2/3 348/2/3
f 350/2/3 343/2/3 342/2/3
f 351/3/3 344/3/3 343/3/3
f 351/2/3 343/2/3 350/2/3
f 352/2/3 345/2/3 344/2/3
f 352/3/3 344/3/3 351/3/3
f 353/2/3 345/2/3 352/2/3
f 354/2/3 339/2/3 346/2/3
f 355/3/3 340/3/3 339/3/3
f 355/2/3 339/2/3 354/2/3
f 356/3/3 340/3/3 355/3/3
f 357/3/3 349/3/3 348/3/3
f 358/2/3 350/2/3 349/2/3
f 358/3/3 349/3/3 357/3/3
f 359/2/3 350/2/3 358/2/3
f 360/2/3 352/2/3 351/2/3
f 361/2/3 352/2/3 360/2/3
f 362/2/3 354/2/3 353/2/3
f 363/3/3 355/3/3 354/3/3
f 363/2/3 354/2/3 362/2/3
f 364/3/3 355/3/3 363/3/3
f 365/3/3 359/3/3 358/3/3
f 366/2/3 360/2/3 359/2/3
f 366/3/3 359/3/3 365/3/3
f 367/2/3 360/2/3 366/2/3
f 368/2/3 362/2/3 361/2/3
f 369/3/3 363/3/3 362/3/3
f 369/2/3 362/2/3 368/2/3
f 370/3/3 363/3/3 369/3/3
f 371/3/3 367/3/3 366/3/3
f 372/2/3 368/2/3 367/2/3
f 372/3/3 367/3/3 371/3/3
f 373/3/3 369/3/3 368/3/3
f 373/2/3 368/2/3 372/2/3
f 374/3/3 369/3/3 373/3/3
f 375/3/3 373/3/3 372/3/3
f 376/3/3 373/3/3 375/3/3
f 377/3/4 378/3/4 382/3/4
f 382/3/4 378/3/4 383/3/4
f 379/3/4 380/3/4 386/3/4
f 386/3/4 380/3/4 387/3/4
f 382/2/4 383/2/4 389/2/4
f 383/3/4 384/3/4 390/3/4
f 389/2/4 383/2/4 390/2/4
f 390/3/4 384/3/4 391/3/4
f 385/3/4 386/3/4 392/3/4
f 386/2/4 387/2/4 393/2/4
f 392/3/4 386/3/4 393/3/4
f 393/2/4 387/2/4 394/2/4
f 381/3/4 382/3/4 395/3/4
f 382/2/4 389/2/4 396/2/4
f 395/3/4 382/3/4 396/3/4
f 396/2/4 389/2/4 397/2/4
f 390/2/4 391/2/4 398/2/4
f 391/3/4 392/3/4 399/3/4
f 398/2/4 391/2/4 399/2/4
f 392/2/4 393/2/4 400/2/4
f 399/3/4 392/3/4 400/3/4
f 400/2/4 393/2/4 401/2/4
f 394/2/4 387/2/4 402/2/4
f 387/3/4 388/3/4 403/3/4
f 402/2/4 387/2/4 403/2/4
f 403/3/4 388/3/4 404/3/4
f 396/3/4 397/3/4 405/3/4
f 397/2/4 398/2/4 406/2/4
f 405/3/4 397/3/4 406/3/4
f 406/2/4 398/2/4 407/2/4
f 399/2/4 400/2/4 408/2/4
f 408/2/4 400/2/4 409/2/4
f 401/2/4 402/2/4 410/2/4
f 402/3/4 403/3/4 411/3/4
f 410/2/4 402/2/4 411/2/4
f 411/3/4 403/3/4 412/3/4
f 406/3/4 407/3/4 414/3/4
f 407/2/4 408/2/4 415/2/4
f 414/3/4 407/3/4 415/3/4
f 415/2/4 408/2/4 416/2/4
f 409/2/4 410/2/4 417/2/4
f 410/3/4 411/3/4 418/3/4
f 417/2/4 410/2/4 418/2/4
f 418/3/4 411/3/4 419/3/4
f 415/3/4 416/3/4 422/3/4
f 413/3/4 414/3/4 422/3/4
f 414/3/4 415/3/4 422/3/4
f 422/3/4 416/3/4 423/3/4
f 416/2/4 417/2/4 424/2/4
f 423/3/4 416/3/4 424/3/4
f 419/3/4 420/3/4 425/3/4
f 424/2/4 417/2/4 425/2/4
f 418/3/4 419/3/4 425/3/4
f 417/3/4 418/3/4 425/3/4
f 425/3/4 420/3/4 426/3/4
f 426/3/4 420/3/4 427/3/4
f 422/2/4 423/2/4 429/2/4
f 423/3/4 424/3/4 430/3/4
f 429/2/4 423/2/4 430/2/4
f 424/3/4 425/3/4 430/3/4
f 425/3/4 426/3/4 430/3/4
f 430/3/4 426/3/4 431/3/4
f 431/3/4 426/3/4 432/3/4
f 426/2/4 427/2/4 433/2/4
f 432/3/4 426/3/4 433/3/4
f 433/2/4 427/2/4 434/2/4
f 421/3/4 422/3/4 435/3/4
f 422/2/4 429/2/4 436/2/4
f 435/3/4 422/3/4 436/3/4
f 436/2/4 429/2/4 437/2/4
f 430/2/4 431/2/4 438/2/4
f 431/3/4 432/3/4 439/3/4
f 438/2/4 431/2/4 439/2/4
f 432/2/4 433/2/4 440/2/4
f 439/3/4 432/3/4 440/3/4
f 440/2/4 433/2/4 441/2/4
f 434/2/4 427/2/4 442/2/4
f 427/3/4 428/3/4 443/3/4
f 442/2/4 427/2/4 443/2/4
f 443/3/4 428/3/4 444/3/4
f 436/3/4 437/3/4 445/3/4
f 437/2/4 438/2/4 446/2/4
f 445/3/4 437/3/4 446/3/4
f 446/2/4 438/2/4 447/2/4
f 439/2/4 440/2/4 448/2/4
f 448/2/4 440/2/4 449/2/4
f 441/2/4 442/2/4 450/2/4
f 442/3/4 443/3/4 451/3/4
f 450/2/4 442/2/4 451/2/4
f 451/3/4 443/3/4 452/3/4
f 446/3/4 447/3/4 453/3/4
f 447/2/4 448/2/4 454/2/4
f 453/3/4 447/3/4 454/3/4
f 454/2/4 448/2/4 455/2/4
f 449/2/4 450/2/4 456/2/4
f 450/3/4 451/3/4 457/3/4
f 456/2/4 450/2/4 457/2/4
f 457/3/4 451/3/4 458/3/4
f 454/3/4 455/3/4 459/3/4
f 455/2/4 456/2/4 460/2/4
f 459/3/4 455/3/4 460/3/4
f 456/3/4 457/3/4 461/3/4
f 460/2/4 456/2/4 461/2/4
f 461/3/4 457/3/4 462/3/4
f 460/3/4 461/3/4 463/3/4
f 463/3/4 461/3/4 464/3/4
f 465/1/4 466/1/4 469/1/4
f 469/1/4 466/1/4 470/1/4
f 467/1/4 468/1/4 473/1/4
f 473/1/4 468/1/4 474/1/4
f 470/1/4 471/1/4 475/1/4
f 475/1/4 471/1/4 476/1/4
f 472/1/4 473/1/4 477/1/4
f 477/1/4 473/1/4 478/1/4
f 476/1/4 477/1/4 479/1/4
f 479/1/4 477/1/4 480/1/4
f 481/1/4 482/1/4 485/1/4
f 485/1/4 482/1/4 486/1/4
f 483/1/4 484/1/4 489/1/4
f 489/1/4 484/1/4 490/1/4
f 486/1/4 487/1/4 491/1/4
f 491/1/4 487/1/4 492/1/4
f 488/1/4 489/1/4 493/1/4
f 493/1/4 489/1/4 494/1/4
f 492/1/4 493/1/4 495/1/4
f 495/1/4 493/1/4 496/1/4
f 501/3/5 498/3/5 497/3/5
f 502/3/5 498/3/5 501/3/5
f 503/3/5 500/3/5 499/3/5
f 504/3/5 500/3/5 503/3/5
f 513/3/5 506/3/5 505/3/5
f 514/3/5 506/3/5 513/3/5
f 515/3/5 508/3/5 507/3/5
f 516/3/5 508/3/5 515/3/5
f 517/3/5 510/3/5 509/3/5
f 518/3/5 510/3/5 517/3/5
f 519/3/5 512/3/5 511/3/5
f 520/3/5 512/3/5 519/3/5
f 525/1/5 522/1/5 521/1/5
f 526/1/5 522/1/5 525/1/5
f 529/1/5 524/1/5 523/1/5
f 530/1/5 524/1/5 529/1/5
f 535/3/5 528/3/5 527/3/5
f 536/3/5 528/3/5 535/3/5
f 539/3/5 532/3/5 531/3/5
f 540/3/5 532/3/5 539/3/5
f 541/1/5 534/1/5 533/1/5
f 542/1/5 534/1/5 541/1/5
f 543/1/5 538/1/5 537/1/5
f 544/1/5 538/1/5 543/1/5
f 549/1/5 546/1/5 545/1/5
f 550/1/5 546/1/5 549/1/5
f 551/1/5 548/1/5 547/1/5
f 552/1/5 548/1/5 551/1/5
f 559/3/5 554/3/5 553/3/5
f 560/3/5 554/3/5 559/3/5
f 561/1/5 556/1/5 555/1/5
f 562/1/5 556/1/5 561/1/5
f 563/1/5 558/1/5 557/1/5
f 564/1/5 558/1/5 563/1/5
f 569/1/5 566/1/5 565/1/5
f 570/1/5 566/1/5 569/1/5
f 571/1/5 568/1/5 567/1/5
f 572/1/5 568/1/5 571/1/5
f 579/3/5 574/3/5 573/3/5
f 580/3/5 574/3/5 579/3/5
f 581/1/5 576/1/5 575/1/5
f 582/1/5 576/1/5 581/1/5
f 583/1/5 578/1/5 577/1/5
f 584/1/5 578/1/5 583/1/5
f 591/1/5 586/1/5 585/1/5
f 592/1/5 586/1/5 591/1/5
f 593/1/5 588/1/5 587/1/5
f 594/1/5 588/1/5 593/1/5
f 595/3/5 590/3/5 589/3/5
f 596/3/5 590/3/5 595/3/5
f 601/1/5 598/1/5 597/1/5
f 602/1/5 598/1/5 601/1/5
f 603/1/5 600/1/5 599/1/5
f 604/1/5 600/1/5 603/1/5
f 611/1/5 606/1/5 605/1/5
f 612/1/5 606/1/5 611/1/5
f 613/1/5 608/1/5 607/1/5
f 614/1/5 608/1/5 613/1/5
f 615/3/5 610/3/5 609/3/5
f 616/3/5 610/3/5 615/3/5
f 621/1/5 618/1/5 617/1/5
f 622/1/5 618/1/5 621/1/5
f 623/1/5 620/1/5 619/1/5
f 624/1/5 620/1/5 623/1/5
f 625/1/6 626/1/6 631/1/6
f 631/1/6 626/1/6 632/1/6
f 627/1/6 628/1/6 633/1/6
f 633/1/6 628/1/6 634/1/6
f 629/3/6 630/3/6 635/3/6
f 635/3/6 630/3/6 636/3/6
f 637/1/6 638/1/6 641/1/6
f 641/1/6 638/1/6 642/1/6
f 639/1/6 640/1/6 643/1/6
f 643/1/6 640/1/6 644/1/6
f 645/1/6 646/1/6 651/1/6
f 651/1/6 646/1/6 652/1/6
f 647/1/6 648/1/6 653/1/6
f 653/1/6 648/1/6 654/1/6
f 649/3/6 650/3/6 655/3/6
f 655/3/6 650/3/6 656/3/6
f 657/1/6 658/1/6 661/1/6
f 661/1/6 658/1/6 662/1/6
f 659/1/6 660/1/6 663/1/6
f 663/1/6 660/1/6 664/1/6
f 665/1/6 666/1/6 669/1/6
f 669/1/6 666/1/6 670/1/6
f 667/1/6 668/1/6 671/1/6
f 671/1/6 668/1/6 672/1/6
f 673/3/6 674/3/6 679/3/6
f 679/3/6 674/3/6 680/3/6
f 675/1/6 676/1/6 681/1/6
f 681/1/6 676/1/6 682/1/6
f 677/1/6 678/1/6 683/1/6
f 683/1/6 678/1/6 684/1/6
f 685/1/6 686/1/6 689/1/6
f 689/1/6 686/1/6 690/1/6
f 687/1/6 688/1/6 691/1/6
f 691/1/6 688/1/6 692/1/6
f 693/3/6 694/3/6 699/3/6
f 699/3/6 694/3/6 700/3/6
f 695/1/6 696/1/6 701/1/6
f 701/1/6 696/1/6 702/1/6
f 697/1/6 698/1/6 703/1/6
f 703/1/6 698/1/6 704/1/6
f 705/1/6 706/1/6 709/1/6
f 709/1/6 706/1/6 710/1/6
f 707/1/6 708/1/6 713/1/6
f 713/1/6 708/1/6 714/1/6
f 711/3/6 712/3/6 719/3/6
f 719/3/6 712/3/6 720/3/6
f 715/3/6 716/3/6 723/3/6
f 723/3/6 716/3/6 724/3/6
f 717/1/6 718/1/6 725/1/6
f 725/1/6 718/1/6 726/1/6
f 721/1/6 722/1/6 727/1/6
f 727/1/6 722/1/6 728/1/6
f 729/3/6 730/3/6 737/3/6
f 737/3/6 730/3/6 738/3/6
f 731/3/6 732/3/6 739/3/6
f 739/3/6 732/3/6 740/3/6
f 733/3/6 734/3/6 741/3/6
f 741/3/6 734/3/6 742/3/6
f 735/3/6 736/3/6 743/3/6
f 743/3/6 736/3/6 744/3/6
f 745/3/6 746/3/6 749/3/6
f 749/3/6 746/3/6 750/3/6
f 747/3/6 748/3/6 751/3/6
f 751/3/6 748/3/6 752/3/6
