# MagicaVoxel @ Ephtracy

# material
mtllib chest_sup.mtl
usemtl palette

# normals
vn -1 0 0
vn 1 0 0
vn 0 0 1
vn 0 0 -1
vn 0 -1 0
vn 0 1 0

# texcoords
vt 0.0410156 0.5
vt 0.228516 0.5
vt 0.537109 0.5
vt 0.876953 0.5

# verts
v -6.5 2 3
v -6.5 2 -3
v -6.5 3 3
v -6.5 3 -3
v -1.5 0 -2
v -1.5 0 -3
v -1.5 2 -2
v -1.5 2 -3
v 1.5 0 -2
v 1.5 0 -3
v 1.5 2 -2
v 1.5 2 -3
v 6.5 2 3
v 6.5 2 -3
v 6.5 3 3
v 6.5 3 -3
v -6.5 2 3
v -6.5 3 3
v 6.5 2 3
v 6.5 3 3
v -1.5 0 -2
v -1.5 2 -2
v -0.5 1 -2
v -0.5 2 -2
v 0.5 1 -2
v 0.5 2 -2
v 1.5 0 -2
v 1.5 2 -2
v -6.5 2 -3
v -6.5 3 -3
v -1.5 0 -3
v -1.5 2 -3
v -0.5 1 -3
v -0.5 2 -3
v 0.5 1 -3
v 0.5 2 -3
v 1.5 0 -3
v 1.5 2 -3
v 6.5 2 -3
v 6.5 3 -3
v -1.5 0 -2
v 1.5 0 -2
v -1.5 0 -3
v 1.5 0 -3
v -6.5 2 3
v 6.5 2 3
v -5.5 2 2
v -4.5 2 2
v -3.5 2 2
v -2.5 2 2
v -1.5 2 2
v -0.5 2 2
v 1.5 2 2
v 2.5 2 2
v 4.5 2 2
v 5.5 2 2
v -5.5 2 1
v -4.5 2 1
v 4.5 2 1
v 5.5 2 1
v -3.5 2 -0
v -2.5 2 -0
v 1.5 2 -0
v 2.5 2 -0
v 3.5 2 -0
v 4.5 2 -0
v -3.5 2 -1
v -2.5 2 -1
v 0.5 2 -1
v 1.5 2 -1
v -5.5 2 -2
v -3.5 2 -2
v -2.5 2 -2
v -1.5 2 -2
v -0.5 2 -2
v 0.5 2 -2
v 1.5 2 -2
v 3.5 2 -2
v 4.5 2 -2
v 5.5 2 -2
v -6.5 2 -3
v -1.5 2 -3
v 1.5 2 -3
v 6.5 2 -3
v -6.5 3 3
v 6.5 3 3
v -5.5 3 2
v -4.5 3 2
v -3.5 3 2
v -2.5 3 2
v -1.5 3 2
v -0.5 3 2
v 1.5 3 2
v 2.5 3 2
v 4.5 3 2
v 5.5 3 2
v -5.5 3 1
v -4.5 3 1
v 4.5 3 1
v 5.5 3 1
v -3.5 3 -0
v -2.5 3 -0
v 1.5 3 -0
v 2.5 3 -0
v 3.5 3 -0
v 4.5 3 -0
v -3.5 3 -1
v -2.5 3 -1
v 0.5 3 -1
v 1.5 3 -1
v -5.5 3 -2
v -3.5 3 -2
v -2.5 3 -2
v -1.5 3 -2
v -0.5 3 -2
v 0.5 3 -2
v 1.5 3 -2
v 3.5 3 -2
v 4.5 3 -2
v 5.5 3 -2
v -6.5 3 -3
v 6.5 3 -3

# faces
f 3/1/1 2/1/1 1/1/1
f 4/1/1 2/1/1 3/1/1
f 7/1/1 6/1/1 5/1/1
f 8/1/1 6/1/1 7/1/1
f 9/1/2 10/1/2 11/1/2
f 11/1/2 10/1/2 12/1/2
f 13/1/2 14/1/2 15/1/2
f 15/1/2 14/1/2 16/1/2
f 19/1/3 18/1/3 17/1/3
f 20/1/3 18/1/3 19/1/3
f 23/1/3 22/1/3 21/1/3
f 24/1/3 22/1/3 23/1/3
f 25/1/3 23/1/3 21/1/3
f 25/4/3 24/4/3 23/4/3
f 26/4/3 24/4/3 25/4/3
f 27/1/3 25/1/3 21/1/3
f 27/1/3 26/1/3 25/1/3
f 28/1/3 26/1/3 27/1/3
f 29/1/4 30/1/4 32/1/4
f 31/1/4 32/1/4 33/1/4
f 32/1/4 30/1/4 34/1/4
f 33/1/4 32/1/4 34/1/4
f 31/1/4 33/1/4 35/1/4
f 33/4/4 34/4/4 35/4/4
f 34/1/4 30/1/4 36/1/4
f 35/4/4 34/4/4 36/4/4
f 31/1/4 35/1/4 37/1/4
f 35/1/4 36/1/4 37/1/4
f 36/1/4 30/1/4 38/1/4
f 37/1/4 36/1/4 38/1/4
f 38/1/4 30/1/4 39/1/4
f 39/1/4 30/1/4 40/1/4
f 43/1/5 42/1/5 41/1/5
f 44/1/5 42/1/5 43/1/5
f 47/1/5 46/1/5 45/1/5
f 48/1/5 46/1/5 47/1/5
f 49/1/5 46/1/5 48/1/5
f 50/1/5 46/1/5 49/1/5
f 51/1/5 46/1/5 50/1/5
f 52/1/5 46/1/5 51/1/5
f 53/1/5 46/1/5 52/1/5
f 54/1/5 46/1/5 53/1/5
f 55/1/5 46/1/5 54/1/5
f 56/1/5 46/1/5 55/1/5
f 57/1/5 47/1/5 45/1/5
f 57/2/5 48/2/5 47/2/5
f 58/3/5 49/3/5 48/3/5
f 58/2/5 48/2/5 57/2/5
f 59/2/5 56/2/5 55/2/5
f 59/3/5 55/3/5 54/3/5
f 60/1/5 46/1/5 56/1/5
f 60/2/5 56/2/5 59/2/5
f 61/3/5 49/3/5 58/3/5
f 61/2/5 50/2/5 49/2/5
f 61/3/5 58/3/5 57/3/5
f 62/3/5 51/3/5 50/3/5
f 62/2/5 50/2/5 61/2/5
f 63/3/5 53/3/5 52/3/5
f 63/2/5 54/2/5 53/2/5
f 64/3/5 59/3/5 54/3/5
f 64/2/5 54/2/5 63/2/5
f 64/3/5 60/3/5 59/3/5
f 65/3/5 60/3/5 64/3/5
f 66/3/5 60/3/5 65/3/5
f 67/3/5 62/3/5 61/3/5
f 67/3/5 61/3/5 57/3/5
f 68/3/5 51/3/5 62/3/5
f 68/3/5 62/3/5 67/3/5
f 69/3/5 63/3/5 52/3/5
f 69/3/5 64/3/5 63/3/5
f 69/3/5 65/3/5 64/3/5
f 70/3/5 65/3/5 69/3/5
f 71/1/5 57/1/5 45/1/5
f 71/3/5 67/3/5 57/3/5
f 72/2/5 68/2/5 67/2/5
f 72/3/5 67/3/5 71/3/5
f 73/3/5 51/3/5 68/3/5
f 73/2/5 68/2/5 72/2/5
f 74/2/5 52/2/5 51/2/5
f 74/3/5 51/3/5 73/3/5
f 75/3/5 69/3/5 52/3/5
f 75/2/5 52/2/5 74/2/5
f 76/2/5 70/2/5 69/2/5
f 76/3/5 69/3/5 75/3/5
f 77/3/5 65/3/5 70/3/5
f 77/2/5 70/2/5 76/2/5
f 78/2/5 66/2/5 65/2/5
f 78/3/5 65/3/5 77/3/5
f 79/3/5 60/3/5 66/3/5
f 79/2/5 66/2/5 78/2/5
f 80/1/5 46/1/5 60/1/5
f 80/3/5 60/3/5 79/3/5
f 81/1/5 72/1/5 71/1/5
f 81/1/5 74/1/5 73/1/5
f 81/1/5 71/1/5 45/1/5
f 81/1/5 73/1/5 72/1/5
f 82/1/5 74/1/5 81/1/5
f 83/1/5 79/1/5 78/1/5
f 83/1/5 80/1/5 79/1/5
f 83/1/5 78/1/5 77/1/5
f 84/1/5 46/1/5 80/1/5
f 84/1/5 80/1/5 83/1/5
f 85/1/6 86/1/6 87/1/6
f 87/1/6 86/1/6 88/1/6
f 88/1/6 86/1/6 89/1/6
f 89/1/6 86/1/6 90/1/6
f 90/1/6 86/1/6 91/1/6
f 91/1/6 86/1/6 92/1/6
f 92/1/6 86/1/6 93/1/6
f 93/1/6 86/1/6 94/1/6
f 94/1/6 86/1/6 95/1/6
f 95/1/6 86/1/6 96/1/6
f 85/1/6 87/1/6 97/1/6
f 87/2/6 88/2/6 97/2/6
f 88/3/6 89/3/6 98/3/6
f 97/2/6 88/2/6 98/2/6
f 95/2/6 96/2/6 99/2/6
f 94/3/6 95/3/6 99/3/6
f 96/1/6 86/1/6 100/1/6
f 99/2/6 96/2/6 100/2/6
f 98/3/6 89/3/6 101/3/6
f 89/2/6 90/2/6 101/2/6
f 97/3/6 98/3/6 101/3/6
f 90/3/6 91/3/6 102/3/6
f 101/2/6 90/2/6 102/2/6
f 92/3/6 93/3/6 103/3/6
f 93/2/6 94/2/6 103/2/6
f 94/3/6 99/3/6 104/3/6
f 103/2/6 94/2/6 104/2/6
f 99/3/6 100/3/6 104/3/6
f 104/3/6 100/3/6 105/3/6
f 105/3/6 100/3/6 106/3/6
f 101/3/6 102/3/6 107/3/6
f 97/3/6 101/3/6 107/3/6
f 102/3/6 91/3/6 108/3/6
f 107/3/6 102/3/6 108/3/6
f 92/3/6 103/3/6 109/3/6
f 103/3/6 104/3/6 109/3/6
f 104/3/6 105/3/6 109/3/6
f 109/3/6 105/3/6 110/3/6
f 85/1/6 97/1/6 111/1/6
f 97/3/6 107/3/6 111/3/6
f 107/2/6 108/2/6 112/2/6
f 111/3/6 107/3/6 112/3/6
f 108/3/6 91/3/6 113/3/6
f 112/2/6 108/2/6 113/2/6
f 91/2/6 92/2/6 114/2/6
f 113/3/6 91/3/6 114/3/6
f 92/3/6 109/3/6 115/3/6
f 114/2/6 92/2/6 115/2/6
f 109/2/6 110/2/6 116/2/6
f 115/3/6 109/3/6 116/3/6
f 110/3/6 105/3/6 117/3/6
f 116/2/6 110/2/6 117/2/6
f 105/2/6 106/2/6 118/2/6
f 117/3/6 105/3/6 118/3/6
f 106/3/6 100/3/6 119/3/6
f 118/2/6 106/2/6 119/2/6
f 100/1/6 86/1/6 120/1/6
f 119/3/6 100/3/6 120/3/6
f 111/1/6 112/1/6 121/1/6
f 118/1/6 119/1/6 121/1/6
f 119/1/6 120/1/6 121/1/6
f 113/1/6 114/1/6 121/1/6
f 85/1/6 111/1/6 121/1/6
f 114/1/6 115/1/6 121/1/6
f 112/1/6 113/1/6 121/1/6
f 116/1/6 117/1/6 121/1/6
f 117/1/6 118/1/6 121/1/6
f 115/1/6 116/1/6 121/1/6
f 120/1/6 86/1/6 122/1/6
f 121/1/6 120/1/6 122/1/6
